<?xml version="1.0" encoding="utf-8"?>
<!-- Generator: Adobe Illustrator 15.1.0, SVG Export Plug-In . SVG Version: 6.00 Build 0)  -->
<!DOCTYPE svg PUBLIC "-//W3C//DTD SVG 1.1//EN" "http://www.w3.org/Graphics/SVG/1.1/DTD/svg11.dtd">
<svg version="1.1" id="Ebene_1" xmlns="http://www.w3.org/2000/svg" xmlns:xlink="http://www.w3.org/1999/xlink" x="0px" y="0px"
	 width="100px" height="100px" viewBox="0 0 100 100" enable-background="new 0 0 100 100" xml:space="preserve">
<circle fill="#E0705F" cx="50" cy="50" r="50"/>
<g>
	<g>
		<path fill="#E0705F" d="M77.049,30.547c-11.39-8.603-21.563-5.277-23.168,0.243c-1.607,5.525,3.827,11.165,8.715,15.028
			c4.126,3.262,9.006,5.79,13.96,6.41C84.587,71.961,66.529,84.07,58.72,87.48c-7.81,3.41-11.073,4.69-12.781,5.781
			c-1.706,1.09-6.956,4.116,12.228,0.072S91.613,70.436,83.232,49.93C86.513,46.499,85.904,37.238,77.049,30.547z"/>
		<path fill="#E0705F" d="M46.522,30.862c1.531-0.667,2.742-2.537,2.305-4.376c-0.436-1.832-2.933-2.754-5.058-1.881
			c-7.135,2.932-12.171,7.944-13.925,8.103c-1.383-0.046-2.509-0.279-3.396-0.597c3.255-4.531,7.96-8.266,14.093-10.494
			c2.332-0.86,4.598-2.802,4.486-4.662c-0.112-1.853-3.866-2.825-6.868-1.733c-7.576,2.743-13.365,7.341-17.369,12.921
			c-0.553-0.771-1.07-1.878-1.177-3.499c-0.318-2.127,6.843-11.484,20.12-13.96c3.623-0.675,9.457-2.516,10.368-4.452
			c0.904-1.922-5.602-3.052-10.112-2.611C28.651,4.731,9.049,17.61,11.432,29.992c0.707,3.671,3.094,5.704,4.84,6.726
			c-8.578,23.918,5.973,44.812,30.527,41.214c3.503,0.043,6.904-2.223,7.021-3.908c0.118-1.692-2.237-2.424-5.01-1.455
			c-21.137,5.399-32.552-15.342-26.039-33.479c1.988,0.442,4.719,0.585,7.625,0.2C36.18,38.523,42.081,32.005,46.522,30.862z"/>
	</g>
	<g>
		<path fill="#FFD078" d="M77.049,30.547c-11.39-8.603-21.563-5.277-23.168,0.243c-1.607,5.525,3.827,11.165,8.715,15.028
			c4.126,3.262,9.006,5.79,13.96,6.41C84.587,71.961,66.529,84.07,58.72,87.48c-7.81,3.41-11.073,4.69-12.781,5.781
			c-1.706,1.09-6.956,4.116,12.228,0.072S91.613,70.436,83.232,49.93C86.513,46.499,85.904,37.238,77.049,30.547z"/>
		<path fill="#FFD078" d="M46.522,30.862c1.531-0.667,2.742-2.537,2.305-4.376c-0.436-1.832-2.933-2.754-5.058-1.881
			c-7.135,2.932-12.171,7.944-13.925,8.103c-1.383-0.046-2.509-0.279-3.396-0.597c3.255-4.531,7.96-8.266,14.093-10.494
			c2.332-0.86,4.598-2.802,4.486-4.662c-0.112-1.853-3.866-2.825-6.868-1.733c-7.576,2.743-13.365,7.341-17.369,12.921
			c-0.553-0.771-1.07-1.878-1.177-3.499c-0.318-2.127,6.843-11.484,20.12-13.96c3.623-0.675,9.457-2.516,10.368-4.452
			c0.904-1.922-5.602-3.052-10.112-2.611C28.651,4.731,9.049,17.61,11.432,29.992c0.707,3.671,3.094,5.704,4.84,6.726
			c-8.578,23.918,5.973,44.812,30.527,41.214c3.503,0.043,6.904-2.223,7.021-3.908c0.118-1.692-2.237-2.424-5.01-1.455
			c-21.137,5.399-32.552-15.342-26.039-33.479c1.988,0.442,4.719,0.585,7.625,0.2C36.18,38.523,42.081,32.005,46.522,30.862z"/>
	</g>
</g>
</svg>
